# xmcd
#
# Track frame offsets:
#	150
#	15928
#	33620
#	47528
#	64097
#	80168
#	97434
#	118376
#	133641
#	149354
#
# Disc length: 2221 seconds
#
# Revision: 0
# Processed by: cddbd v1.5.2PL0 Copyright (c) Steve Scherf et al.
# Submitted via: EZCDAudioConverter 3.1.7.1
#
DISCID=9208ab0a
DTITLE=SWV - Still
DYEAR=2016
DGENRE=R&B
TTITLE0=Still
TTITLE1=MCE (Man Crush Every Day)
TTITLE2=On Tonight
TTITLE3=Let's Make Music
TTITLE4=Ain't No Man
TTITLE5=Love Song
TTITLE6=When Love Didn't Hurt
TTITLE7=Miss You
TTITLE8=Leaving You Alone
TTITLE9=What We Gon' Do
EXTD=
EXTT0=
EXTT1=
EXTT2=
EXTT3=
EXTT4=
EXTT5=
EXTT6=
EXTT7=
EXTT8=
EXTT9=
PLAYORDER=
